<?xml version="1.0" encoding="UTF-8" standalone="no"?>
<!DOCTYPE svg PUBLIC "-//W3C//DTD SVG 20010904//EN"
              "http://www.w3.org/TR/2001/REC-SVG-20010904/DTD/svg10.dtd">

<svg xmlns="http://www.w3.org/2000/svg"
     width="176.766mm" height="86.2662mm"
     viewBox="0 0 668 326">
  <path id="Selection #1"
        fill="none" stroke="black" stroke-width="1"
        d="M 617.00,4.00
           C 616.48,13.34 610.83,18.14 605.08,25.00
             603.40,27.01 600.45,30.90 598.04,31.83
             594.57,33.18 592.87,29.50 596.14,24.00
             598.37,20.26 608.62,7.77 612.00,5.60
             613.96,4.34 614.84,4.35 617.00,4.00 Z
           M 434.00,27.53
           C 444.63,25.79 453.19,28.40 457.53,39.00
             459.76,44.45 463.97,71.78 464.00,78.00
             464.00,78.00 464.00,91.00 464.00,91.00
             464.00,91.00 466.00,117.00 466.00,117.00
             466.00,117.00 466.00,135.00 466.00,135.00
             465.99,139.07 466.07,143.23 464.23,146.98
             460.34,154.97 448.90,156.17 441.00,155.99
             423.89,155.59 425.53,143.67 424.17,130.00
             424.17,130.00 421.00,93.00 421.00,93.00
             421.00,93.00 421.00,47.00 421.00,47.00
             421.05,36.34 423.06,30.80 434.00,27.53 Z
           M 527.00,29.42
           C 540.60,27.76 550.19,29.73 563.00,34.00
             567.66,35.56 570.98,36.45 575.00,39.53
             579.12,42.69 581.54,45.98 584.65,50.00
             586.63,52.56 588.87,55.20 590.47,58.00
             594.92,65.74 597.05,74.29 598.28,83.00
             599.08,88.61 600.20,90.84 599.96,97.00
             599.96,97.00 598.43,107.00 598.43,107.00
             598.43,107.00 596.23,119.00 596.23,119.00
             593.49,127.88 584.90,140.70 578.00,146.82
             568.99,154.79 551.02,160.86 539.00,161.00
             539.00,161.00 528.00,161.00 528.00,161.00
             511.96,160.81 500.59,151.67 491.72,139.00
             477.56,118.77 470.02,83.35 479.87,60.00
             488.97,38.46 505.75,32.63 527.00,29.42 Z
           M 316.00,32.23
           C 316.00,32.23 336.00,32.23 336.00,32.23
             355.36,32.23 374.31,40.41 388.00,54.00
             392.24,58.21 395.56,61.72 398.49,67.00
             402.37,74.01 404.89,85.99 406.00,94.00
             407.67,106.10 407.64,119.60 400.21,130.00
             391.39,142.37 370.78,151.25 356.00,153.56
             356.00,153.56 345.00,154.17 345.00,154.17
             336.82,155.05 339.13,156.13 328.00,156.00
             323.58,155.94 315.75,155.35 312.85,151.61
             310.89,149.07 310.05,136.63 310.00,133.00
             309.86,120.80 309.09,123.54 308.08,114.00
             308.08,114.00 308.08,102.00 308.08,102.00
             308.08,102.00 306.00,78.00 306.00,78.00
             306.00,78.00 305.04,51.00 305.04,51.00
             304.63,46.93 303.05,41.91 305.04,38.11
             307.33,34.24 312.04,33.35 316.00,32.23 Z
           M 435.00,34.43
           C 432.24,35.55 430.68,36.23 429.17,39.04
             427.21,42.72 428.00,58.02 428.00,63.00
             428.00,63.00 428.00,80.00 428.00,80.00
             428.00,80.00 430.00,107.00 430.00,107.00
             430.02,117.42 429.80,115.66 431.41,126.00
             432.23,131.26 431.30,140.94 433.93,144.85
             436.58,148.79 441.86,148.02 446.00,148.00
             456.68,147.95 457.98,145.08 458.00,135.00
             458.00,135.00 458.00,111.00 458.00,111.00
             458.00,111.00 457.00,94.00 457.00,94.00
             456.97,77.94 457.14,73.20 454.00,57.00
             451.63,44.79 451.90,31.90 435.00,34.43 Z
           M 528.00,36.29
           C 518.13,37.79 509.59,38.98 501.00,44.55
             491.61,50.63 484.37,62.82 483.09,74.00
             483.09,74.00 483.09,91.00 483.09,91.00
             483.01,99.41 484.20,104.02 486.59,112.00
             492.45,131.59 504.83,153.72 528.00,154.00
             548.47,154.24 567.03,151.00 580.62,134.00
             586.66,126.46 590.88,113.64 591.00,104.00
             591.23,84.41 592.41,71.77 580.12,55.00
             578.13,52.29 575.43,48.52 572.91,46.39
             562.76,37.81 540.93,35.08 528.00,36.29 Z
           M 326.00,39.29
           C 322.19,39.87 314.35,40.31 312.60,44.22
             311.83,45.94 312.00,50.02 312.00,52.00
             312.00,52.00 314.00,83.00 314.00,83.00
             314.00,83.00 316.92,113.00 316.92,113.00
             316.92,113.00 316.92,131.00 316.92,131.00
             317.11,140.38 317.01,147.85 328.00,148.00
             328.00,148.00 342.00,147.17 342.00,147.17
             364.89,144.88 398.65,139.56 399.00,110.00
             399.14,98.04 398.68,84.06 393.69,73.00
             384.23,52.02 362.74,42.01 341.00,39.83
             334.39,39.17 333.03,38.63 326.00,39.29 Z
           M 187.28,41.02
           C 192.04,39.24 202.52,39.94 208.00,40.00
             211.10,40.04 216.02,40.11 218.26,42.56
             220.22,44.70 220.44,56.31 220.84,60.00
             220.84,60.00 223.83,87.00 223.83,87.00
             224.56,94.48 224.77,102.39 228.99,108.99
             235.08,118.50 245.99,118.07 252.35,108.99
             255.81,104.06 255.99,98.76 256.00,93.00
             256.00,93.00 256.00,55.00 256.00,55.00
             256.01,51.59 255.76,47.10 257.85,44.23
             260.35,40.79 264.21,41.02 268.00,41.00
             268.00,41.00 275.00,41.00 275.00,41.00
             278.63,41.01 283.71,40.68 286.44,43.51
             289.15,46.32 288.81,51.39 289.17,55.00
             289.17,55.00 292.00,82.00 292.00,82.00
             292.08,98.78 290.61,127.23 282.68,142.00
             279.73,147.49 275.19,152.45 270.00,155.90
             255.59,165.47 233.70,164.14 218.00,158.66
             210.66,156.09 203.61,152.69 199.25,146.00
             194.63,138.91 189.39,122.49 188.06,114.00
             188.06,114.00 188.06,105.00 188.06,105.00
             188.06,105.00 186.08,96.00 186.08,96.00
             186.08,96.00 186.08,79.00 186.08,79.00
             186.08,79.00 184.09,64.00 184.09,64.00
             184.09,64.00 184.09,51.00 184.09,51.00
             184.06,46.49 183.89,44.28 187.28,41.02 Z
           M 116.00,43.22
           C 116.00,43.22 129.00,43.22 129.00,43.22
             131.70,43.00 135.42,42.78 137.79,44.17
             142.62,47.02 145.85,59.65 147.42,65.00
             147.42,65.00 153.33,82.00 153.33,82.00
             153.33,82.00 168.67,128.00 168.67,128.00
             168.67,128.00 174.33,145.00 174.33,145.00
             175.12,147.42 176.59,151.47 175.96,153.96
             174.61,159.31 161.87,161.39 157.00,161.82
             148.83,162.55 148.02,156.53 146.14,150.00
             143.40,140.49 140.12,122.81 129.00,120.40
             112.43,116.79 109.26,137.67 107.58,149.00
             107.06,152.49 106.90,156.99 104.49,159.72
             100.20,164.59 93.44,162.21 88.00,161.43
             84.85,160.97 79.73,161.31 77.33,159.26
             74.75,157.07 75.59,153.87 76.24,151.00
             76.24,151.00 82.14,130.00 82.14,130.00
             82.14,130.00 99.85,67.00 99.85,67.00
             101.37,61.40 103.54,49.32 108.21,46.01
             110.48,44.39 113.33,43.96 116.00,43.22 Z
           M 264.00,48.00
           C 264.00,48.00 265.00,65.00 265.00,65.00
             265.00,65.00 265.00,87.00 265.00,87.00
             264.93,92.70 263.61,100.70 261.54,106.00
             255.85,120.53 242.98,130.31 229.00,118.67
             226.67,116.73 224.62,114.54 222.96,112.00
             216.44,102.00 217.03,93.09 215.72,82.00
             215.72,82.00 213.00,60.00 213.00,60.00
             212.87,48.68 214.44,47.05 204.00,47.00
             204.00,47.00 200.00,47.00 200.00,47.00
             190.43,47.13 191.81,49.29 192.00,66.00
             192.00,66.00 193.91,86.00 193.91,86.00
             193.91,86.00 195.17,106.00 195.17,106.00
             195.17,106.00 196.87,115.00 196.87,115.00
             198.87,128.33 200.51,140.94 213.00,148.87
             223.23,155.36 238.29,154.02 250.00,154.00
             272.25,153.97 278.42,140.34 281.27,121.00
             282.48,112.81 283.99,108.57 284.00,100.00
             284.03,82.68 284.06,65.10 281.00,48.00
             281.00,48.00 264.00,48.00 264.00,48.00 Z
           M 651.00,47.00
           C 650.60,48.79 650.56,49.88 649.26,51.37
             647.44,53.46 631.98,60.49 628.00,62.72
             625.90,63.89 620.14,67.65 618.01,65.17
             615.10,61.78 621.75,57.16 624.00,55.70
             631.06,51.09 642.49,45.12 651.00,47.00 Z
           M 552.31,49.08
           C 558.37,47.74 558.33,53.40 555.69,54.92
             553.05,56.44 548.12,53.65 552.31,49.08 Z
           M 84.00,154.00
           C 87.40,154.00 96.03,154.76 98.40,152.40
             99.99,150.82 100.76,144.52 101.37,142.00
             103.97,131.42 106.56,116.70 119.00,113.68
             121.61,113.05 124.32,112.96 127.00,113.02
             137.53,113.22 140.76,115.91 145.24,125.00
             147.64,129.85 149.09,133.80 150.57,139.00
             150.57,139.00 153.13,148.00 153.13,148.00
             155.31,153.15 161.00,156.14 165.53,151.49
             167.95,149.01 167.11,145.95 166.28,143.00
             166.28,143.00 159.67,123.00 159.67,123.00
             159.67,123.00 141.33,69.00 141.33,69.00
             138.55,60.73 138.05,52.19 128.00,52.00
             128.00,52.00 120.00,52.00 120.00,52.00
             118.00,52.04 115.91,52.01 114.11,53.02
             109.01,55.88 106.60,69.41 105.00,75.00
             105.00,75.00 91.58,123.00 91.58,123.00
             88.98,132.12 84.43,144.82 84.00,154.00 Z
           M 501.31,57.08
           C 507.37,55.74 507.33,61.40 504.69,62.92
             502.05,64.44 497.12,61.65 501.31,57.08 Z
           M 539.00,60.46
           C 543.10,60.25 549.22,60.89 553.00,62.53
             566.72,68.48 578.78,88.96 577.91,104.00
             576.62,126.14 557.71,138.23 537.00,138.00
             517.48,137.78 509.65,125.33 505.37,108.00
             504.24,103.39 502.80,97.72 503.09,93.00
             503.82,81.18 512.09,68.36 523.00,63.53
             528.48,61.09 533.25,61.19 539.00,60.46 Z
           M 534.52,68.60
           C 530.56,71.79 532.69,75.28 534.52,79.00
             537.94,84.81 539.33,85.99 546.00,85.99
             547.82,85.99 550.22,85.97 551.91,85.26
             557.60,82.88 558.61,74.67 553.77,70.88
             549.49,67.51 539.42,67.36 534.52,68.60 Z
           M 520.04,75.54
           C 509.33,79.62 506.85,100.86 521.96,96.57
             529.74,94.36 531.59,75.85 520.04,75.54 Z
           M 346.13,77.06
           C 354.11,77.05 361.79,84.27 363.28,92.00
             364.59,98.83 359.04,107.52 352.02,108.30
             348.00,108.74 346.29,105.25 345.22,102.00
             344.22,98.95 344.09,96.11 343.57,93.00
             342.63,87.42 339.85,80.32 346.13,77.06 Z
           M 123.09,77.90
           C 132.56,79.04 135.50,95.60 126.98,96.85
             113.34,98.86 113.46,80.85 123.09,77.90 Z
           M 566.00,84.00
           C 566.00,84.00 551.04,93.02 551.04,93.02
             551.04,93.02 536.04,93.61 536.04,93.61
             536.04,93.61 526.00,101.99 526.00,101.99
             526.00,101.99 512.00,105.00 512.00,105.00
             512.56,108.93 514.85,119.40 519.19,120.66
             523.05,121.79 525.83,115.48 532.00,114.28
             536.86,113.33 541.27,115.95 545.00,115.18
             548.75,114.41 552.43,110.39 556.00,108.36
             561.84,105.05 566.38,105.58 568.57,103.99
             573.33,100.53 567.87,88.27 566.00,84.00 Z
           M 632.08,98.56
           C 639.89,97.12 645.45,99.11 653.00,100.03
             653.00,100.03 659.95,100.03 659.95,100.03
             664.66,101.16 664.19,104.77 660.85,106.22
             657.57,107.73 652.44,106.50 649.00,106.22
             649.00,106.22 632.08,105.57 632.08,105.57
             627.20,104.11 627.88,100.55 632.08,98.56 Z
           M 568.00,113.00
           C 556.32,113.03 554.01,114.17 554.00,126.00
             561.67,124.54 565.81,120.43 568.00,113.00 Z
           M 550.00,129.00
           C 545.78,123.66 535.73,117.92 529.11,122.60
             527.00,124.08 526.17,125.84 525.00,128.00
             534.23,132.70 540.26,130.75 550.00,129.00 Z
           M 384.00,178.42
           C 395.31,177.05 403.18,178.85 414.00,181.63
             418.35,182.75 423.11,183.83 426.21,187.34
             431.14,192.93 432.82,206.63 432.80,214.00
             433.03,215.98 433.04,219.12 432.80,221.00
             430.58,229.84 421.86,231.83 414.00,231.25
             400.77,230.26 375.15,227.21 371.39,245.00
             369.84,252.37 375.76,257.69 382.00,260.24
             385.50,261.67 399.03,264.43 403.00,264.83
             410.23,265.57 416.68,265.02 422.98,269.64
             433.82,277.57 434.62,299.79 427.35,309.98
             424.79,313.58 421.21,315.98 417.00,317.21
             411.13,318.94 405.01,318.68 399.00,319.09
             399.00,319.09 391.00,319.92 391.00,319.92
             391.00,319.92 383.00,319.09 383.00,319.09
             366.58,317.94 348.64,313.69 337.17,301.00
             320.80,282.88 321.96,265.47 322.00,243.00
             322.02,233.16 323.63,230.10 326.67,221.00
             330.74,208.79 334.00,200.95 344.00,192.18
             351.59,185.53 364.08,180.99 374.00,179.44
             374.00,179.44 384.00,178.42 384.00,178.42 Z
           M 147.00,184.38
           C 150.21,184.02 152.75,183.82 156.00,184.38
             175.53,187.18 173.98,206.18 174.00,221.00
             174.00,221.00 174.96,237.00 174.96,237.00
             174.96,237.00 174.00,249.00 174.00,249.00
             173.96,257.30 173.14,268.95 171.34,277.00
             167.61,293.65 154.88,315.15 138.00,320.90
             131.75,323.02 124.53,323.07 118.00,323.00
             95.69,322.74 71.62,308.42 71.01,284.00
             70.85,277.18 68.34,267.39 75.06,263.41
             82.02,259.30 99.38,258.70 105.67,264.42
             109.81,268.17 113.36,279.36 120.99,278.14
             130.15,276.67 131.99,260.27 132.00,253.00
             132.00,253.00 132.00,242.00 132.00,242.00
             132.00,242.00 131.00,227.00 131.00,227.00
             131.00,227.00 131.00,210.00 131.00,210.00
             131.06,198.03 134.11,187.65 147.00,184.38 Z
           M 378.00,186.29
           C 368.09,187.93 353.40,191.99 346.18,199.18
             340.80,204.54 336.70,213.91 334.05,221.00
             331.08,228.94 329.11,233.28 329.00,242.00
             328.71,266.78 328.68,293.73 355.00,305.69
             370.76,312.84 386.23,312.19 403.00,312.00
             418.05,311.82 425.59,307.04 424.96,291.00
             424.76,285.98 423.64,279.92 419.79,276.39
             414.28,271.34 407.59,272.49 401.00,271.83
             401.00,271.83 381.00,267.56 381.00,267.56
             372.34,264.93 362.39,257.08 363.56,247.00
             364.11,242.21 366.89,237.49 370.10,234.01
             379.17,224.23 389.18,221.81 402.00,223.16
             406.99,223.69 420.99,225.74 424.40,221.69
             426.24,219.50 426.05,215.72 425.99,213.00
             425.86,207.49 424.30,197.37 420.58,193.21
             417.68,189.95 413.11,188.63 409.00,187.65
             400.31,185.59 386.95,185.44 378.00,186.29 Z
           M 494.00,284.00
           C 494.00,284.00 493.00,296.00 493.00,296.00
             492.96,304.70 495.31,317.48 483.00,317.98
             477.33,318.21 475.79,317.42 471.00,317.04
             471.00,317.04 460.00,317.04 460.00,317.04
             456.77,316.96 452.97,316.95 450.51,314.49
             447.68,311.66 448.01,306.70 448.00,303.00
             448.00,303.00 448.00,251.00 448.00,251.00
             448.00,251.00 449.00,234.00 449.00,234.00
             449.00,234.00 449.00,197.00 449.00,197.00
             449.01,193.66 448.57,189.20 451.43,186.85
             454.33,184.48 458.60,185.13 462.00,185.58
             469.30,186.53 485.75,184.01 490.57,189.28
             492.94,191.86 492.95,194.72 493.00,198.00
             493.13,207.62 491.97,214.66 495.00,224.00
             503.74,211.71 503.17,215.26 510.83,206.99
             518.18,199.06 523.81,188.10 536.00,188.08
             539.77,188.07 544.36,189.29 548.00,190.29
             554.86,192.19 569.48,193.49 568.83,203.00
             568.46,208.29 562.49,214.28 559.02,218.00
             551.51,226.06 545.47,232.79 539.33,242.00
             536.78,245.83 531.84,252.17 533.19,257.00
             534.51,261.70 541.22,266.63 545.00,269.58
             545.00,269.58 565.00,284.51 565.00,284.51
             565.00,284.51 574.00,292.72 574.00,292.72
             577.42,295.73 584.29,301.35 585.16,306.00
             585.90,309.97 582.34,311.97 579.00,312.66
             579.00,312.66 552.00,314.10 552.00,314.10
             546.64,314.07 541.27,315.79 536.00,314.10
             530.81,312.64 525.39,307.68 521.00,304.37
             521.00,304.37 494.00,284.00 494.00,284.00 Z
           M 255.00,189.42
           C 259.91,188.83 269.71,188.16 273.61,191.56
             277.13,194.63 281.60,210.79 283.33,216.00
             283.33,216.00 303.33,274.00 303.33,274.00
             303.33,274.00 311.00,296.00 311.00,296.00
             311.94,298.88 313.71,303.80 312.40,306.72
             311.24,309.31 308.47,309.62 306.00,309.95
             300.08,310.72 293.97,312.20 288.00,311.96
             284.86,311.83 280.77,311.22 278.21,309.28
             275.20,307.00 273.58,302.42 272.20,299.00
             269.36,291.95 263.89,274.62 257.96,270.74
             255.35,269.03 252.97,269.04 250.00,269.00
             246.20,268.95 241.41,268.55 238.21,270.89
             234.59,273.54 234.06,277.95 233.12,282.00
             233.12,282.00 228.42,304.00 228.42,304.00
             227.60,307.73 227.14,311.85 224.57,314.87
             221.63,318.33 218.27,318.88 214.00,318.99
             208.99,319.11 197.01,318.60 194.36,313.78
             192.69,310.83 193.84,307.10 194.36,304.00
             194.36,304.00 197.08,288.00 197.08,288.00
             197.08,288.00 208.92,220.00 208.92,220.00
             208.92,220.00 212.25,200.00 212.25,200.00
             212.73,197.26 213.14,193.71 215.43,191.85
             218.03,189.74 222.80,190.00 226.00,190.00
             226.00,190.00 255.00,189.42 255.00,189.42 Z
           M 147.00,192.43
           C 137.38,196.32 140.00,207.27 140.00,216.00
             140.00,216.00 140.00,253.00 140.00,253.00
             139.96,260.73 138.47,268.38 134.29,275.00
             133.07,276.94 131.41,279.26 129.82,280.90
             122.41,288.49 113.95,286.26 107.33,278.91
             104.47,275.74 102.92,271.36 98.96,269.31
             94.67,267.10 83.92,267.19 80.74,271.28
             79.01,273.50 79.04,276.33 79.00,279.00
             78.94,283.79 78.57,289.54 80.27,294.00
             85.56,307.91 101.98,314.83 116.00,315.00
             116.00,315.00 127.00,315.00 127.00,315.00
             142.75,314.81 151.52,305.35 158.19,292.00
             169.11,270.17 168.04,244.71 168.00,221.00
             167.99,214.09 166.43,196.83 159.89,193.17
             156.75,191.41 150.50,191.90 147.00,192.43 Z
           M 576.00,305.00
           C 568.87,292.79 550.30,282.32 539.00,273.33
             534.83,270.02 526.12,262.37 525.32,257.00
             524.69,252.83 527.96,247.50 530.01,244.00
             535.46,234.69 543.25,224.95 550.95,217.42
             554.25,214.20 562.77,206.49 558.40,201.51
             556.53,199.38 550.80,198.29 548.00,197.46
             542.24,196.33 536.77,195.14 531.00,197.46
             525.72,199.20 522.30,203.93 518.72,208.00
             518.72,208.00 505.00,222.00 505.00,222.00
             500.09,226.91 487.27,243.46 485.06,227.00
             485.06,227.00 485.06,221.00 485.06,221.00
             485.06,221.00 485.06,201.00 485.06,201.00
             484.96,198.86 485.04,196.23 483.40,194.60
             480.88,192.08 467.91,192.93 464.00,193.00
             462.38,193.03 459.94,192.96 458.60,194.02
             456.62,195.59 457.00,199.70 457.00,202.00
             457.00,202.00 457.00,295.00 457.00,295.00
             457.00,295.00 458.00,309.00 458.00,309.00
             466.58,310.54 468.00,309.74 476.00,310.07
             478.28,310.17 481.53,310.74 483.40,309.11
             485.28,307.47 484.92,304.25 485.04,302.00
             485.04,302.00 486.00,287.00 486.00,287.00
             486.01,283.12 485.84,273.35 492.02,274.04
             494.91,274.36 502.43,280.94 505.00,283.00
             505.00,283.00 534.00,306.01 534.00,306.01
             540.59,309.79 545.16,306.85 552.00,306.01
             560.05,305.36 568.01,306.94 576.00,305.00 Z
           M 305.00,303.00
           C 305.00,303.00 278.00,222.00 278.00,222.00
             276.25,216.75 271.91,200.94 267.61,198.29
             265.19,196.79 260.81,197.00 258.00,197.00
             258.00,197.00 232.00,197.00 232.00,197.00
             228.69,197.01 222.38,196.66 220.16,199.53
             218.32,201.91 216.16,218.85 215.39,223.00
             215.39,223.00 204.59,286.00 204.59,286.00
             204.59,286.00 201.92,302.00 201.92,302.00
             201.55,304.33 200.74,307.36 202.61,309.26
             204.55,311.24 209.38,311.09 212.00,310.98
             219.90,310.66 220.79,305.70 222.20,299.00
             222.20,299.00 226.54,279.00 226.54,279.00
             227.17,275.66 227.22,272.14 228.77,269.04
             232.87,260.81 243.27,261.91 251.00,262.00
             267.40,262.20 271.16,276.92 276.05,290.00
             277.69,294.39 280.04,301.53 284.10,304.07
             288.95,307.09 299.41,304.02 305.00,303.00 Z
           M 244.01,222.61
           C 245.87,222.47 246.84,222.11 248.61,223.19
             250.87,224.57 259.90,241.10 249.98,243.14
             248.22,243.74 245.74,243.41 244.00,243.14
             237.79,241.26 237.85,237.57 238.02,232.00
             238.08,229.60 238.19,227.26 239.74,225.28
             241.12,223.50 242.10,223.37 244.01,222.61 Z" />
</svg>
